<svg xmlns="http://www.w3.org/2000/svg" viewBox="0 0 32 32" fill="none">
  <defs>
    <linearGradient id="gradShield" x1="6" y1="4" x2="26" y2="28" gradientUnits="userSpaceOnUse">
      <stop stop-color="#2DE5C2" />
      <stop offset="1" stop-color="#6B5BFF" />
    </linearGradient>
    <linearGradient id="gradText" x1="10" y1="9" x2="22" y2="22" gradientUnits="userSpaceOnUse">
      <stop stop-color="#2DE5C2" />
      <stop offset="1" stop-color="#55A8FF" />
    </linearGradient>
  </defs>
  <rect width="32" height="32" rx="8" fill="#040404" />
  <path
    d="M16 3.5 26 8.5 24 21.5 16 29 8 21.5 6 8.5 16 3.5Z"
    stroke="url(#gradShield)"
    stroke-width="2"
    stroke-linejoin="round"
    fill="none"
  />
  <path
    d="M12.9 12.1c0-1.8 1.4-3.2 3.7-3.2 2.1 0 3.5 1.2 3.5 3 0 1.8-1.1 2.8-3.1 3.4l-1.3.4c-.9.3-1.4.8-1.4 1.5 0 .8.7 1.3 1.7 1.3.9 0 1.6-.5 1.7-1.4l2.2.1c-.2 2-1.7 3.3-4.2 3.3-2.5 0-3.9-1.3-3.9-3.3 0-1.6 1-2.7 2.7-3.2l1.5-.5c1-.3 1.6-.8 1.6-1.5 0-.8-.6-1.3-1.5-1.3-.9 0-1.6.6-1.6 1.6v.1H12.9Z"
    fill="url(#gradText)"
  />
</svg>
